<?xml version="1.0" encoding="UTF-8"?>
<svg width="20px" height="14px" viewBox="0 0 20 14" version="1.1" xmlns="http://www.w3.org/2000/svg" xmlns:xlink="http://www.w3.org/1999/xlink">
    <!-- Generator: Sketch 51.3 (57544) - http://www.bohemiancoding.com/sketch -->
    <title>uzbekistan (1)</title>
    <desc>Created with Sketch.</desc>
    <defs></defs>
    <g id="Page-1" stroke="none" stroke-width="1" fill="none" fill-rule="evenodd">
        <g id="02" transform="translate(-577.000000, -8.000000)" fill-rule="nonzero">
            <g id="uzbekistan-(1)" transform="translate(577.000000, 8.000000)">
                <path d="M0,11.8432432 C0,13.0319946 0.995,13.9958 2.22222656,13.9958 L17.7777734,13.9958 C19.005,13.9958 20,13.0319946 20,11.8432432 L20,9.69068649 L0,9.69068649 L0,11.8432432 Z" id="Shape" fill="#1EB53A"></path>
                <path d="M17.7777734,0.0042 L2.22222656,0.0042 C0.995,0.0042 0,0.968005405 0,2.15675676 L0,4.30931351 L20,4.30931351 L20,2.15675676 C20,0.968005405 19.005,0.0042 17.7777734,0.0042 Z" id="Shape" fill="#0099B5"></path>
                <g id="Group" transform="translate(0.000000, 4.275676)" fill="#CE1126">
                    <polygon id="Shape" points="0 0.840832432 20 0.840832432 20 0.0336378378 0 0.0336378378"></polygon>
                    <polygon id="Shape" points="0 5.41501081 20 5.41501081 20 4.60781622 0 4.60781622"></polygon>
                </g>
                <polygon id="Shape" fill="#EEEEEE" points="0 7 0 8.88349189 20 8.88349189 20 7 20 5.11650811 0 5.11650811"></polygon>
                <g id="Group" transform="translate(1.718750, 0.529730)" fill="#FFFFFF">
                    <path d="M0.614570312,1.71314595 C0.614570312,0.881167568 1.23957031,0.191308108 2.05902344,0.0578162162 C1.96511719,0.0427567568 1.86847656,0.0341297297 1.77011719,0.0341297297 C0.812890625,0.0341297297 0.036796875,0.785891892 0.036796875,1.71310811 C0.036796875,2.64032432 0.812890625,3.39208649 1.77011719,3.39208649 C1.8684375,3.39208649 1.96511719,3.38345946 2.05902344,3.3684 C1.23957031,3.23498378 0.614570312,2.54508649 0.614570312,1.71314595" id="Shape"></path>
                    <polygon id="Shape" points="3.21613281 2.9526 3.13835938 2.72065405 3.06058594 2.9526 2.80835938 2.9526 3.01226563 3.09574054 2.93449219 3.32821622 3.13839844 3.18454595 3.34230469 3.32821622 3.26453125 3.09574054 3.46785156 2.9526"></polygon>
                    <polygon id="Shape" points="4.71753906 2.9526 4.63976563 2.72065405 4.56199219 2.9526 4.30976563 2.9526 4.51367188 3.09574054 4.43589844 3.32821622 4.63980469 3.18454595 4.84371094 3.32821622 4.7659375 3.09574054 4.96925781 2.9526"></polygon>
                    <polygon id="Shape" points="4.63976562 1.37733514 4.56199219 1.60928108 4.3103125 1.60928108 4.51363281 1.75295135 4.43585937 1.9848973 4.63976562 1.84122703 4.84367187 1.9848973 4.76589844 1.75295135 4.96921875 1.60928108 4.71753906 1.60928108"></polygon>
                    <polygon id="Shape" points="6.21910156 2.9526 6.14132813 2.72065405 6.06355469 2.9526 5.81132813 2.9526 6.01523438 3.09574054 5.93746094 3.32821622 6.14136719 3.18454595 6.34527344 3.32821622 6.2675 3.09574054 6.47082031 2.9526"></polygon>
                    <polygon id="Shape" points="6.14132813 1.37733514 6.06355469 1.60928108 5.811875 1.60928108 6.01519531 1.75295135 5.93742188 1.9848973 6.14132812 1.84122703 6.34523437 1.9848973 6.26746094 1.75295135 6.47078125 1.60928108 6.21910156 1.60928108"></polygon>
                    <polygon id="Shape" points="6.14132813 0.0341297297 6.06355469 0.266075676 5.811875 0.266075676 6.01519531 0.409745946 5.93742188 0.641691892 6.14132812 0.498021622 6.34523437 0.641691892 6.26746094 0.409745946 6.47078125 0.266075676 6.21910156 0.266075676"></polygon>
                    <polygon id="Shape" points="7.72054687 2.9526 7.64277344 2.72065405 7.565 2.9526 7.31277344 2.9526 7.51667969 3.09574054 7.43890625 3.32821622 7.6428125 3.18454595 7.84671875 3.32821622 7.76894531 3.09574054 7.97226562 2.9526"></polygon>
                    <polygon id="Shape" points="7.64273438 1.37733514 7.56496094 1.60928108 7.31328125 1.60928108 7.51660156 1.75295135 7.43882812 1.9848973 7.64273438 1.84122703 7.84664063 1.9848973 7.76886719 1.75295135 7.9721875 1.60928108 7.72050781 1.60928108"></polygon>
                    <polygon id="Shape" points="7.64273438 0.0341297297 7.56496094 0.266075676 7.31328125 0.266075676 7.51660156 0.409745946 7.43882812 0.641691892 7.64273438 0.498021622 7.84664063 0.641691892 7.76886719 0.409745946 7.9721875 0.266075676 7.72050781 0.266075676"></polygon>
                    <polygon id="Shape" points="9.22199219 2.9526 9.14421875 2.72065405 9.06644531 2.9526 8.81421875 2.9526 9.018125 3.09574054 8.94035156 3.32821622 9.14425781 3.18454595 9.34816406 3.32821622 9.27039063 3.09574054 9.47371094 2.9526"></polygon>
                    <polygon id="Shape" points="9.14417969 1.37733514 9.06640625 1.60928108 8.81472656 1.60928108 9.01804687 1.75295135 8.94027344 1.9848973 9.14417969 1.84122703 9.34808594 1.9848973 9.2703125 1.75295135 9.47363281 1.60928108 9.22195313 1.60928108"></polygon>
                    <polygon id="Shape" points="9.14417969 0.0341297297 9.06640625 0.266075676 8.81472656 0.266075676 9.01804687 0.409745946 8.94027344 0.641691892 9.14417969 0.498021622 9.34808594 0.641691892 9.2703125 0.409745946 9.47363281 0.266075676 9.22195313 0.266075676"></polygon>
                </g>
            </g>
        </g>
    </g>
</svg>