<svg xmlns="http://www.w3.org/2000/svg" xmlns:xlink="http://www.w3.org/1999/xlink" aria-hidden="true" focusable="false" width="1em" height="1em" style="-ms-transform: rotate(360deg); -webkit-transform: rotate(360deg); transform: rotate(360deg);" preserveAspectRatio="xMidYMid meet" viewBox="0 0 1024 1024"><path d="M1023 473q0-4-1-8t-2.5-8t-3.5-7.5t-5-6.5l-1-1q-2-3-5-6l-6-6L582 27Q555 0 514 0t-68 27L29 427q-6 6-12 13T5.5 458.5T0 481v479q0 27 19 45.5t45 18.5h896q17 0 32-8.5t23.5-23.5t8.5-32V478l-1-5zM270 726L64 916V545zm66 27l6-6l1-1l141-130q11-9 25-9t24 8l384 345H110zm421-22l203-180v362zM104 443L491 72q10-9 23-9t23 9l361 345h-1l55 55l-242 215l-136-121q-18-15-41-20t-47 0t-43 21L317 683L75 469l27-26h2z" fill="#263b5e"/></svg>